<svg id="visual" viewBox="0 0 900 600" width="900" height="600" xmlns="http://www.w3.org/2000/svg" xmlns:xlink="http://www.w3.org/1999/xlink" version="1.1"><rect x="0" y="0" width="900" height="600" fill="#001220"></rect><path d="M0 413L21.5 408.3C43 403.7 86 394.3 128.8 385.2C171.7 376 214.3 367 257.2 368C300 369 343 380 385.8 389.8C428.7 399.7 471.3 408.3 514.2 403C557 397.7 600 378.3 642.8 376.5C685.7 374.7 728.3 390.3 771.2 393.3C814 396.3 857 386.7 878.5 381.8L900 377L900 601L878.5 601C857 601 814 601 771.2 601C728.3 601 685.7 601 642.8 601C600 601 557 601 514.2 601C471.3 601 428.7 601 385.8 601C343 601 300 601 257.2 601C214.3 601 171.7 601 128.8 601C86 601 43 601 21.5 601L0 601Z" fill="#fa7268"></path><path d="M0 458L21.5 452.2C43 446.3 86 434.7 128.8 429.8C171.7 425 214.3 427 257.2 433.2C300 439.3 343 449.7 385.8 449.8C428.7 450 471.3 440 514.2 441.7C557 443.3 600 456.7 642.8 463.3C685.7 470 728.3 470 771.2 457.7C814 445.3 857 420.7 878.5 408.3L900 396L900 601L878.5 601C857 601 814 601 771.2 601C728.3 601 685.7 601 642.8 601C600 601 557 601 514.2 601C471.3 601 428.7 601 385.8 601C343 601 300 601 257.2 601C214.3 601 171.7 601 128.8 601C86 601 43 601 21.5 601L0 601Z" fill="#ef5f67"></path><path d="M0 497L21.5 499C43 501 86 505 128.8 503.5C171.7 502 214.3 495 257.2 487.5C300 480 343 472 385.8 474.7C428.7 477.3 471.3 490.7 514.2 498.3C557 506 600 508 642.8 508.7C685.7 509.3 728.3 508.7 771.2 507C814 505.3 857 502.7 878.5 501.3L900 500L900 601L878.5 601C857 601 814 601 771.2 601C728.3 601 685.7 601 642.8 601C600 601 557 601 514.2 601C471.3 601 428.7 601 385.8 601C343 601 300 601 257.2 601C214.3 601 171.7 601 128.8 601C86 601 43 601 21.5 601L0 601Z" fill="#e34c67"></path><path d="M0 483L21.5 490.7C43 498.3 86 513.7 128.8 517.5C171.7 521.3 214.3 513.7 257.2 511.3C300 509 343 512 385.8 512C428.7 512 471.3 509 514.2 504.7C557 500.3 600 494.7 642.8 497.7C685.7 500.7 728.3 512.3 771.2 511.2C814 510 857 496 878.5 489L900 482L900 601L878.5 601C857 601 814 601 771.2 601C728.3 601 685.7 601 642.8 601C600 601 557 601 514.2 601C471.3 601 428.7 601 385.8 601C343 601 300 601 257.2 601C214.3 601 171.7 601 128.8 601C86 601 43 601 21.5 601L0 601Z" fill="#d53867"></path><path d="M0 543L21.5 541.5C43 540 86 537 128.8 539.2C171.7 541.3 214.3 548.7 257.2 549.7C300 550.7 343 545.3 385.8 545.8C428.7 546.3 471.3 552.7 514.2 550.8C557 549 600 539 642.8 534.7C685.7 530.3 728.3 531.7 771.2 532.5C814 533.3 857 533.7 878.5 533.8L900 534L900 601L878.5 601C857 601 814 601 771.2 601C728.3 601 685.7 601 642.8 601C600 601 557 601 514.2 601C471.3 601 428.7 601 385.8 601C343 601 300 601 257.2 601C214.3 601 171.7 601 128.8 601C86 601 43 601 21.5 601L0 601Z" fill="#c62368"></path></svg>